# xmcd
# Track frame offsets:
# 150
# 16279
# 29252
# 40946
# 58163
# 70692
# 87235
# 105016
# 116588
# 128598
# 143398
# 155949
#
# Disc length: 2296 seconds
# Revision: 0
# Processed by: cddbd v1.4PL0 Copyright (c) Steve Scherf et al.
# Submitted via: VisiTrax 2.9.5.181 - For more info visit www.synapsa.com
#
DISCID=9208f60c
DTITLE=Keith Jamieson - Troy's Memory
DYEAR=2002
DGENRE=Country
TTITLE0=Solar Powered Ringer
TTITLE1=Howard
TTITLE2=Bush Ballad Rock
TTITLE3=One Tree Plain
TTITLE4=Old Time Ringer
TTITLE5=Alec Smith
TTITLE6=I leave You A song
TTITLE7=The Roma Oil Rig Man
TTITLE8=He's A Bushman
TTITLE9=Len Cant The Drover
TTITLE10=Overnighter
TTITLE11=Troy's Memory
EXTD=
EXTT0=
EXTT1=
EXTT2=
EXTT3=
EXTT4=
EXTT5=
EXTT6=
EXTT7=
EXTT8=
EXTT9=
EXTT10=
EXTT11=
PLAYORDER=
